<svg xmlns="http://www.w3.org/2000/svg" xmlns:xlink="http://www.w3.org/1999/xlink" width="1024" zoomAndPan="magnify" viewBox="0 0 768 767.999994" height="1024" preserveAspectRatio="xMidYMid meet" version="1.2"><defs><clipPath id="3d255a53a8"><path d="M 415 721 L 733 721 L 733 743.464844 L 415 743.464844 Z M 415 721 "/></clipPath><clipPath id="82ebd776df"><path d="M 228 277 L 745.40625 277 L 745.40625 573 L 228 573 Z M 228 277 "/></clipPath><clipPath id="275d3e93e7"><path d="M 22.40625 214 L 122 214 L 122 295 L 22.40625 295 Z M 22.40625 214 "/></clipPath><clipPath id="abcce17ba8"><path d="M 22.40625 214 L 122 214 L 122 295 L 22.40625 295 Z M 22.40625 214 "/></clipPath></defs><g id="0e8d56b669"><path style=" stroke:none;fill-rule:nonzero;fill:#d4def9;fill-opacity:1;" d="M 691.148438 243.25 C 682.890625 292.050781 648.71875 331.09375 623.375 372.015625 C 604.414062 402.800781 591.835938 434.898438 592.398438 471.5 C 592.773438 504.347656 598.96875 540.574219 576.816406 568.355469 C 540.578125 613.78125 484.445312 602.332031 436.570312 578.492188 C 429.8125 575.113281 423.050781 571.359375 416.667969 567.792969 C 362.597656 541.328125 301.957031 501.53125 240.378906 529.875 C 235.121094 532.128906 229.675781 534.382812 224.230469 536.257812 C 223.105469 536.632812 221.792969 537.199219 220.664062 537.574219 C 160.773438 558.785156 93.5625 558.21875 54.324219 499.09375 C 29.730469 461.925781 26.539062 415 33.109375 371.265625 C 34.613281 360.941406 36.675781 350.804688 39.117188 341.042969 C 47.753906 306.882812 67.464844 276.847656 82.863281 245.5 C 91.683594 227.292969 99.195312 208.523438 102.199219 188.0625 C 105.578125 164.414062 102.761719 139.636719 103.511719 115.421875 C 103.890625 103.21875 105.203125 91.394531 108.769531 79.757812 C 109.144531 78.253906 109.707031 76.941406 110.085938 75.4375 C 112.902344 67.367188 116.65625 60.421875 121.160156 54.417969 C 139.183594 30.578125 168.660156 24.382812 200.953125 28.699219 C 246.011719 34.894531 288.441406 54.792969 331.246094 71.496094 C 337.628906 73.9375 344.199219 76.378906 350.582031 78.816406 C 385.878906 91.394531 424.367188 98.527344 461.914062 92.144531 C 507.914062 84.449219 555.035156 66.804688 601.785156 79.382812 C 675.753906 99.089844 702.976562 173.234375 691.148438 243.25 Z M 691.148438 243.25 "/><g clip-rule="nonzero" clip-path="url(#3d255a53a8)"><path style=" stroke:none;fill-rule:nonzero;fill:#d4def9;fill-opacity:1;" d="M 732.488281 732.4375 C 732.488281 732.617188 732.425781 732.792969 732.296875 732.972656 C 732.167969 733.152344 731.980469 733.328125 731.726562 733.503906 C 731.472656 733.683594 731.15625 733.859375 730.773438 734.035156 C 730.394531 734.210938 729.953125 734.386719 729.445312 734.5625 C 728.941406 734.738281 728.375 734.910156 727.746094 735.082031 C 727.113281 735.257812 726.425781 735.429688 725.671875 735.597656 C 724.921875 735.769531 724.109375 735.9375 723.234375 736.105469 C 722.363281 736.273438 721.429688 736.441406 720.441406 736.605469 C 719.449219 736.769531 718.398438 736.933594 717.292969 737.09375 C 716.183594 737.253906 715.019531 737.414062 713.800781 737.570312 C 712.578125 737.726562 711.300781 737.882812 709.96875 738.035156 C 708.640625 738.1875 707.253906 738.339844 705.816406 738.488281 C 704.375 738.636719 702.882812 738.78125 701.339844 738.921875 C 699.796875 739.066406 698.207031 739.207031 696.5625 739.34375 C 694.917969 739.484375 693.226562 739.617188 691.488281 739.75 C 689.75 739.882812 687.964844 740.011719 686.132812 740.136719 C 684.300781 740.261719 682.425781 740.386719 680.507812 740.503906 C 678.585938 740.625 676.625 740.742188 674.625 740.855469 C 672.621094 740.96875 670.582031 741.078125 668.5 741.183594 C 666.417969 741.289062 664.300781 741.390625 662.148438 741.492188 C 659.996094 741.589844 657.808594 741.683594 655.585938 741.777344 C 653.363281 741.867188 651.109375 741.957031 648.828125 742.039062 C 646.542969 742.125 644.230469 742.203125 641.886719 742.28125 C 639.546875 742.355469 637.179688 742.429688 634.785156 742.496094 C 632.394531 742.566406 629.976562 742.628906 627.539062 742.6875 C 625.101562 742.75 622.640625 742.804688 620.164062 742.855469 C 617.683594 742.90625 615.1875 742.957031 612.675781 743 C 610.164062 743.042969 607.636719 743.082031 605.097656 743.117188 C 602.554688 743.152344 600.003906 743.179688 597.441406 743.207031 C 594.878906 743.234375 592.308594 743.253906 589.734375 743.273438 C 587.15625 743.289062 584.574219 743.304688 581.984375 743.3125 C 579.398438 743.320312 576.808594 743.324219 574.21875 743.324219 C 571.628906 743.324219 569.042969 743.320312 566.453125 743.3125 C 563.867188 743.304688 561.285156 743.289062 558.707031 743.273438 C 556.128906 743.253906 553.558594 743.234375 550.996094 743.207031 C 548.433594 743.179688 545.882812 743.152344 543.34375 743.117188 C 540.804688 743.082031 538.277344 743.042969 535.765625 743 C 533.25 742.957031 530.753906 742.910156 528.277344 742.855469 C 525.796875 742.804688 523.339844 742.75 520.902344 742.6875 C 518.460938 742.628906 516.046875 742.566406 513.652344 742.496094 C 511.261719 742.429688 508.894531 742.355469 506.550781 742.28125 C 504.210938 742.203125 501.898438 742.125 499.613281 742.039062 C 497.328125 741.957031 495.074219 741.867188 492.855469 741.777344 C 490.632812 741.683594 488.445312 741.589844 486.289062 741.492188 C 484.136719 741.390625 482.019531 741.289062 479.941406 741.183594 C 477.859375 741.078125 475.816406 740.96875 473.816406 740.855469 C 471.8125 740.742188 469.851562 740.625 467.933594 740.503906 C 466.015625 740.386719 464.140625 740.261719 462.308594 740.136719 C 460.476562 740.011719 458.691406 739.882812 456.953125 739.75 C 455.210938 739.617188 453.519531 739.484375 451.878906 739.34375 C 450.234375 739.207031 448.640625 739.066406 447.097656 738.921875 C 445.554688 738.78125 444.0625 738.636719 442.625 738.488281 C 441.1875 738.339844 439.800781 738.1875 438.46875 738.035156 C 437.136719 737.882812 435.859375 737.726562 434.640625 737.570312 C 433.417969 737.414062 432.253906 737.253906 431.148438 737.09375 C 430.039062 736.933594 428.992188 736.769531 428 736.605469 C 427.007812 736.441406 426.078125 736.273438 425.203125 736.105469 C 424.332031 735.9375 423.519531 735.769531 422.765625 735.597656 C 422.015625 735.429688 421.324219 735.257812 420.695312 735.082031 C 420.066406 734.910156 419.5 734.738281 418.992188 734.5625 C 418.488281 734.386719 418.046875 734.210938 417.664062 734.035156 C 417.285156 733.859375 416.96875 733.683594 416.714844 733.503906 C 416.460938 733.328125 416.269531 733.152344 416.144531 732.972656 C 416.015625 732.792969 415.953125 732.617188 415.953125 732.4375 C 415.953125 732.261719 416.015625 732.082031 416.144531 731.902344 C 416.269531 731.726562 416.460938 731.546875 416.714844 731.371094 C 416.96875 731.195312 417.285156 731.015625 417.664062 730.839844 C 418.046875 730.664062 418.488281 730.488281 418.992188 730.3125 C 419.5 730.140625 420.066406 729.964844 420.695312 729.792969 C 421.324219 729.621094 422.015625 729.449219 422.765625 729.277344 C 423.519531 729.109375 424.332031 728.9375 425.203125 728.769531 C 426.078125 728.601562 427.007812 728.4375 428 728.273438 C 428.992188 728.109375 430.039062 727.945312 431.148438 727.785156 C 432.253906 727.621094 433.417969 727.464844 434.640625 727.304688 C 435.859375 727.148438 437.136719 726.996094 438.46875 726.839844 C 439.800781 726.6875 441.1875 726.539062 442.625 726.390625 C 444.0625 726.242188 445.554688 726.097656 447.097656 725.953125 C 448.640625 725.808594 450.234375 725.667969 451.878906 725.53125 C 453.519531 725.394531 455.210938 725.257812 456.953125 725.128906 C 458.691406 724.996094 460.476562 724.867188 462.308594 724.738281 C 464.140625 724.613281 466.015625 724.492188 467.933594 724.371094 C 469.851562 724.253906 471.8125 724.136719 473.816406 724.023438 C 475.816406 723.910156 477.859375 723.800781 479.941406 723.695312 C 482.019531 723.585938 484.136719 723.484375 486.289062 723.386719 C 488.445312 723.289062 490.632812 723.191406 492.855469 723.101562 C 495.074219 723.007812 497.328125 722.921875 499.613281 722.835938 C 501.898438 722.753906 504.210938 722.671875 506.550781 722.597656 C 508.894531 722.519531 511.261719 722.449219 513.652344 722.378906 C 516.046875 722.3125 518.460938 722.246094 520.902344 722.1875 C 523.339844 722.128906 525.796875 722.070312 528.277344 722.019531 C 530.753906 721.96875 533.25 721.921875 535.765625 721.878906 C 538.277344 721.835938 540.804688 721.796875 543.34375 721.761719 C 545.882812 721.726562 548.433594 721.695312 550.996094 721.667969 C 553.558594 721.644531 556.128906 721.621094 558.707031 721.605469 C 561.285156 721.585938 563.867188 721.574219 566.453125 721.5625 C 569.042969 721.554688 571.628906 721.550781 574.21875 721.550781 C 576.808594 721.550781 579.398438 721.554688 581.984375 721.5625 C 584.574219 721.574219 587.15625 721.585938 589.734375 721.605469 C 592.3125 721.621094 594.878906 721.644531 597.441406 721.667969 C 600.003906 721.695312 602.554688 721.726562 605.097656 721.761719 C 607.636719 721.796875 610.164062 721.835938 612.675781 721.878906 C 615.1875 721.921875 617.683594 721.96875 620.164062 722.019531 C 622.640625 722.070312 625.101562 722.128906 627.539062 722.1875 C 629.976562 722.246094 632.394531 722.3125 634.785156 722.378906 C 637.179688 722.449219 639.546875 722.519531 641.886719 722.597656 C 644.230469 722.671875 646.542969 722.753906 648.828125 722.835938 C 651.109375 722.921875 653.363281 723.007812 655.585938 723.101562 C 657.808594 723.191406 659.996094 723.289062 662.148438 723.386719 C 664.300781 723.484375 666.417969 723.585938 668.5 723.695312 C 670.582031 723.800781 672.621094 723.910156 674.625 724.023438 C 676.625 724.136719 678.585938 724.253906 680.507812 724.371094 C 682.425781 724.492188 684.300781 724.613281 686.132812 724.738281 C 687.964844 724.867188 689.75 724.996094 691.488281 725.128906 C 693.226562 725.257812 694.917969 725.394531 696.5625 725.53125 C 698.207031 725.667969 699.796875 725.808594 701.339844 725.953125 C 702.882812 726.097656 704.375 726.242188 705.816406 726.390625 C 707.253906 726.539062 708.640625 726.6875 709.96875 726.839844 C 711.300781 726.992188 712.578125 727.148438 713.800781 727.304688 C 715.019531 727.464844 716.183594 727.621094 717.292969 727.785156 C 718.398438 727.945312 719.449219 728.105469 720.441406 728.273438 C 721.429688 728.4375 722.363281 728.601562 723.234375 728.769531 C 724.109375 728.9375 724.921875 729.109375 725.671875 729.277344 C 726.425781 729.449219 727.113281 729.621094 727.746094 729.792969 C 728.375 729.964844 728.941406 730.140625 729.445312 730.3125 C 729.953125 730.488281 730.394531 730.664062 730.773438 730.839844 C 731.15625 731.015625 731.472656 731.195312 731.726562 731.371094 C 731.980469 731.546875 732.167969 731.726562 732.296875 731.902344 C 732.425781 732.082031 732.488281 732.261719 732.488281 732.4375 Z M 732.488281 732.4375 "/></g><path style=" stroke:none;fill-rule:nonzero;fill:#d4def9;fill-opacity:1;" d="M 550.046875 708.109375 C 550.046875 708.289062 549.960938 708.464844 549.78125 708.644531 C 549.605469 708.820312 549.339844 709 548.988281 709.175781 C 548.632812 709.355469 548.191406 709.53125 547.664062 709.707031 C 547.132812 709.882812 546.515625 710.058594 545.8125 710.234375 C 545.109375 710.410156 544.320312 710.582031 543.441406 710.753906 C 542.566406 710.929688 541.605469 711.097656 540.558594 711.269531 C 539.511719 711.441406 538.378906 711.609375 537.164062 711.777344 C 535.949219 711.945312 534.652344 712.113281 533.269531 712.277344 C 531.890625 712.441406 530.429688 712.601562 528.886719 712.765625 C 527.34375 712.925781 525.722656 713.085938 524.023438 713.242188 C 522.320312 713.398438 520.542969 713.554688 518.691406 713.707031 C 516.835938 713.859375 514.90625 714.011719 512.902344 714.15625 C 510.898438 714.304688 508.820312 714.453125 506.671875 714.59375 C 504.523438 714.738281 502.304688 714.878906 500.015625 715.015625 C 497.730469 715.152344 495.375 715.289062 492.949219 715.421875 C 490.527344 715.554688 488.042969 715.683594 485.492188 715.808594 C 482.941406 715.933594 480.328125 716.058594 477.65625 716.175781 C 474.984375 716.296875 472.253906 716.414062 469.464844 716.527344 C 466.675781 716.636719 463.832031 716.746094 460.9375 716.855469 C 458.039062 716.960938 455.089844 717.0625 452.089844 717.160156 C 449.089844 717.261719 446.042969 717.355469 442.949219 717.449219 C 439.855469 717.539062 436.71875 717.628906 433.539062 717.710938 C 430.355469 717.796875 427.136719 717.875 423.875 717.953125 C 420.613281 718.027344 417.316406 718.101562 413.984375 718.167969 C 410.652344 718.234375 407.289062 718.300781 403.890625 718.359375 C 400.496094 718.421875 397.070312 718.476562 393.617188 718.527344 C 390.167969 718.578125 386.691406 718.628906 383.191406 718.671875 C 379.695312 718.714844 376.175781 718.753906 372.636719 718.789062 C 369.097656 718.820312 365.546875 718.851562 361.976562 718.878906 C 358.410156 718.90625 354.832031 718.925781 351.242188 718.945312 C 347.652344 718.960938 344.054688 718.976562 340.453125 718.984375 C 336.847656 718.992188 333.246094 718.996094 329.636719 718.996094 C 326.03125 718.996094 322.425781 718.992188 318.820312 718.984375 C 315.21875 718.976562 311.621094 718.960938 308.03125 718.945312 C 304.441406 718.925781 300.863281 718.90625 297.296875 718.878906 C 293.726562 718.851562 290.175781 718.820312 286.636719 718.789062 C 283.097656 718.753906 279.582031 718.714844 276.082031 718.671875 C 272.582031 718.628906 269.105469 718.578125 265.65625 718.527344 C 262.203125 718.476562 258.78125 718.421875 255.382812 718.359375 C 251.988281 718.300781 248.621094 718.234375 245.289062 718.167969 C 241.957031 718.101562 238.660156 718.027344 235.398438 717.953125 C 232.136719 717.875 228.917969 717.796875 225.734375 717.710938 C 222.554688 717.628906 219.417969 717.539062 216.324219 717.449219 C 213.230469 717.355469 210.183594 717.261719 207.183594 717.160156 C 204.183594 717.0625 201.234375 716.960938 198.339844 716.855469 C 195.441406 716.746094 192.597656 716.636719 189.808594 716.527344 C 187.023438 716.414062 184.292969 716.296875 181.617188 716.175781 C 178.945312 716.058594 176.332031 715.933594 173.78125 715.808594 C 171.234375 715.683594 168.746094 715.554688 166.324219 715.421875 C 163.902344 715.289062 161.546875 715.152344 159.257812 715.015625 C 156.96875 714.878906 154.75 714.738281 152.601562 714.59375 C 150.453125 714.453125 148.375 714.304688 146.371094 714.15625 C 144.367188 714.011719 142.4375 713.859375 140.585938 713.707031 C 138.730469 713.554688 136.953125 713.398438 135.253906 713.242188 C 133.550781 713.085938 131.929688 712.925781 130.386719 712.765625 C 128.847656 712.601562 127.382812 712.441406 126.003906 712.277344 C 124.625 712.109375 123.324219 711.945312 122.109375 711.777344 C 120.894531 711.609375 119.765625 711.441406 118.71875 711.269531 C 117.671875 711.097656 116.707031 710.929688 115.832031 710.753906 C 114.957031 710.582031 114.164062 710.410156 113.460938 710.234375 C 112.757812 710.058594 112.140625 709.882812 111.613281 709.707031 C 111.082031 709.53125 110.640625 709.355469 110.289062 709.175781 C 109.933594 709 109.667969 708.820312 109.492188 708.644531 C 109.316406 708.464844 109.226562 708.289062 109.226562 708.109375 C 109.226562 707.929688 109.316406 707.753906 109.492188 707.574219 C 109.667969 707.398438 109.933594 707.21875 110.289062 707.042969 C 110.640625 706.867188 111.082031 706.6875 111.613281 706.511719 C 112.140625 706.335938 112.757812 706.160156 113.460938 705.984375 C 114.164062 705.8125 114.957031 705.636719 115.832031 705.464844 C 116.707031 705.292969 117.671875 705.121094 118.71875 704.949219 C 119.765625 704.777344 120.894531 704.609375 122.109375 704.441406 C 123.324219 704.273438 124.625 704.109375 126.003906 703.945312 C 127.382812 703.777344 128.847656 703.617188 130.386719 703.453125 C 131.929688 703.292969 133.550781 703.132812 135.253906 702.976562 C 136.953125 702.820312 138.730469 702.664062 140.585938 702.511719 C 142.4375 702.359375 144.367188 702.210938 146.371094 702.0625 C 148.375 701.914062 150.453125 701.765625 152.601562 701.625 C 154.75 701.480469 156.96875 701.339844 159.257812 701.203125 C 161.546875 701.066406 163.902344 700.929688 166.324219 700.796875 C 168.746094 700.667969 171.234375 700.539062 173.78125 700.410156 C 176.332031 700.285156 178.945312 700.164062 181.617188 700.042969 C 184.292969 699.921875 187.023438 699.808594 189.808594 699.695312 C 192.597656 699.582031 195.441406 699.472656 198.339844 699.363281 C 201.234375 699.257812 204.183594 699.15625 207.183594 699.058594 C 210.183594 698.957031 213.230469 698.863281 216.324219 698.773438 C 219.417969 698.679688 222.554688 698.59375 225.734375 698.507812 C 228.917969 698.425781 232.136719 698.34375 235.398438 698.269531 C 238.660156 698.191406 241.957031 698.121094 245.289062 698.050781 C 248.621094 697.984375 251.988281 697.917969 255.382812 697.859375 C 258.78125 697.800781 262.203125 697.742188 265.65625 697.691406 C 269.105469 697.640625 272.582031 697.59375 276.082031 697.550781 C 279.582031 697.503906 283.097656 697.464844 286.636719 697.433594 C 290.175781 697.398438 293.726562 697.367188 297.296875 697.339844 C 300.863281 697.316406 304.441406 697.292969 308.03125 697.273438 C 311.621094 697.257812 315.21875 697.246094 318.820312 697.234375 C 322.425781 697.226562 326.03125 697.222656 329.636719 697.222656 C 333.246094 697.222656 336.847656 697.226562 340.453125 697.234375 C 344.054688 697.246094 347.652344 697.257812 351.242188 697.273438 C 354.832031 697.292969 358.410156 697.316406 361.976562 697.339844 C 365.546875 697.367188 369.097656 697.398438 372.636719 697.433594 C 376.175781 697.464844 379.695312 697.503906 383.191406 697.550781 C 386.691406 697.59375 390.167969 697.640625 393.617188 697.691406 C 397.070312 697.742188 400.496094 697.800781 403.890625 697.859375 C 407.289062 697.917969 410.652344 697.984375 413.984375 698.050781 C 417.316406 698.121094 420.613281 698.191406 423.875 698.269531 C 427.136719 698.34375 430.355469 698.425781 433.539062 698.507812 C 436.71875 698.59375 439.855469 698.679688 442.949219 698.773438 C 446.042969 698.863281 449.089844 698.957031 452.089844 699.058594 C 455.089844 699.15625 458.039062 699.257812 460.9375 699.363281 C 463.832031 699.472656 466.675781 699.582031 469.464844 699.695312 C 472.253906 699.808594 474.984375 699.921875 477.65625 700.042969 C 480.328125 700.164062 482.941406 700.285156 485.492188 700.410156 C 488.042969 700.539062 490.527344 700.667969 492.949219 700.796875 C 495.375 700.929688 497.730469 701.066406 500.015625 701.203125 C 502.304688 701.339844 504.523438 701.480469 506.671875 701.625 C 508.820312 701.765625 510.898438 701.914062 512.902344 702.0625 C 514.90625 702.210938 516.835938 702.359375 518.691406 702.511719 C 520.542969 702.664062 522.320312 702.820312 524.023438 702.976562 C 525.722656 703.136719 527.34375 703.292969 528.886719 703.453125 C 530.429688 703.617188 531.890625 703.777344 533.269531 703.945312 C 534.652344 704.109375 535.949219 704.273438 537.164062 704.441406 C 538.378906 704.609375 539.511719 704.777344 540.558594 704.949219 C 541.605469 705.121094 542.566406 705.292969 543.441406 705.464844 C 544.320312 705.636719 545.109375 705.8125 545.8125 705.984375 C 546.515625 706.160156 547.132812 706.335938 547.664062 706.511719 C 548.191406 706.6875 548.632812 706.867188 548.988281 707.042969 C 549.339844 707.21875 549.605469 707.398438 549.78125 707.574219 C 549.960938 707.753906 550.046875 707.929688 550.046875 708.109375 Z M 550.046875 708.109375 "/><path style=" stroke:none;fill-rule:nonzero;fill:#3e4d77;fill-opacity:1;" d="M 469.613281 704.070312 L 169.035156 704.632812 C 161.339844 704.632812 155.144531 698.4375 155.144531 690.742188 L 154.015625 138.507812 C 154.015625 130.8125 160.210938 124.617188 167.910156 124.617188 L 468.488281 124.054688 C 476.183594 124.054688 482.378906 130.25 482.378906 137.945312 L 483.507812 690.179688 C 483.507812 697.875 477.308594 704.070312 469.613281 704.070312 Z M 469.613281 704.070312 "/><path style=" stroke:none;fill-rule:nonzero;fill:#d4def9;fill-opacity:1;" d="M 181.800781 700.878906 C 176.171875 700.878906 171.664062 696.371094 171.664062 690.742188 L 170.539062 138.507812 C 170.539062 135.878906 171.664062 133.253906 173.542969 131.375 C 175.417969 129.5 178.046875 128.371094 180.675781 128.371094 L 481.253906 127.808594 C 486.886719 127.808594 491.390625 132.3125 491.390625 137.945312 L 492.519531 690.179688 C 492.519531 692.804688 491.390625 695.433594 489.515625 697.3125 C 487.636719 699.1875 485.007812 700.3125 482.378906 700.3125 Z M 181.800781 700.878906 "/><path style=" stroke:none;fill-rule:nonzero;fill:#263156;fill-opacity:1;" d="M 481.253906 131.5625 C 484.820312 131.5625 487.636719 134.378906 487.636719 137.945312 L 488.761719 690.179688 C 488.761719 693.746094 485.945312 696.558594 482.378906 696.558594 L 181.800781 697.125 C 178.234375 697.125 175.417969 694.308594 175.417969 690.742188 L 174.292969 138.507812 C 174.292969 136.820312 174.855469 135.128906 176.171875 134.003906 C 177.296875 132.878906 178.984375 132.125 180.675781 132.125 L 481.253906 131.5625 M 481.253906 124.054688 C 481.066406 124.054688 481.066406 124.054688 481.253906 124.054688 L 180.675781 124.617188 C 172.976562 124.617188 166.78125 130.8125 166.78125 138.507812 L 167.910156 690.742188 C 167.910156 698.4375 174.105469 704.632812 181.800781 704.632812 L 482.378906 704.070312 C 490.078125 704.070312 496.273438 697.875 496.273438 690.179688 L 495.144531 137.945312 C 494.957031 130.25 488.761719 124.054688 481.253906 124.054688 Z M 481.253906 124.054688 "/><path style=" stroke:none;fill-rule:nonzero;fill:#ffffff;fill-opacity:1;" d="M 182.863281 152.125 L 477.996094 152.125 L 477.996094 658.554688 L 182.863281 658.554688 Z M 182.863281 152.125 "/><path style=" stroke:none;fill-rule:nonzero;fill:#d4def9;fill-opacity:1;" d="M 200.886719 172.207031 L 459.972656 172.207031 L 459.972656 638.46875 L 200.886719 638.46875 Z M 200.886719 172.207031 "/><path style=" stroke:none;fill-rule:nonzero;fill:#263156;fill-opacity:1;" d="M 338.945312 689.992188 L 325.050781 689.992188 C 323.359375 689.992188 322.046875 688.675781 322.046875 686.988281 L 322.046875 673.097656 C 322.046875 671.40625 323.359375 670.09375 325.050781 670.09375 L 338.945312 670.09375 C 340.632812 670.09375 341.949219 671.40625 341.949219 673.097656 L 341.949219 686.988281 C 341.949219 688.675781 340.632812 689.992188 338.945312 689.992188 Z M 325.425781 686.613281 L 338.566406 686.613281 L 338.566406 673.472656 L 325.425781 673.472656 Z M 325.425781 686.613281 "/><path style=" stroke:none;fill-rule:nonzero;fill:#e25469;fill-opacity:1;" d="M 637.082031 523.121094 C 607.792969 501.34375 607.980469 643.25 615.113281 683.234375 C 622.4375 723.214844 631.261719 696.371094 638.019531 632.738281 C 644.777344 569.109375 648.53125 531.753906 637.082031 523.121094 Z M 637.082031 523.121094 "/><path style=" stroke:none;fill-rule:nonzero;fill:#e25469;fill-opacity:1;" d="M 610.609375 679.101562 L 609.480469 693.933594 L 633.886719 695.246094 L 633.511719 680.792969 Z M 610.609375 679.101562 "/><path style=" stroke:none;fill-rule:nonzero;fill:#263156;fill-opacity:1;" d="M 634.453125 694.871094 C 634.453125 694.871094 638.769531 703.878906 653.976562 715.894531 C 668.996094 727.90625 673.125 725.46875 673.316406 729.785156 C 673.503906 734.101562 606.289062 728.65625 606.289062 728.65625 L 609.292969 692.992188 C 609.105469 693.179688 634.453125 693.933594 634.453125 694.871094 Z M 634.453125 694.871094 "/><path style=" stroke:none;fill-rule:nonzero;fill:#e25469;fill-opacity:1;" d="M 556.914062 375.019531 C 526.875 370.136719 528.1875 402.238281 529.128906 427.953125 C 531.945312 468.496094 524.246094 515.796875 538.703125 524.246094 C 577.566406 544.894531 583.386719 390.597656 573.058594 381.777344 C 568.367188 377.460938 566.863281 377.835938 556.914062 375.019531 Z M 556.914062 375.019531 "/><path style=" stroke:none;fill-rule:nonzero;fill:#e25469;fill-opacity:1;" d="M 595.964844 386.65625 C 565.925781 391.535156 577.378906 421.570312 586.390625 445.597656 C 601.972656 483.136719 609.667969 530.441406 626.003906 533.820312 C 669.558594 540.953125 625.816406 393.039062 613.425781 387.78125 C 607.605469 385.53125 606.289062 386.46875 595.964844 386.65625 Z M 595.964844 386.65625 "/><path style=" stroke:none;fill-rule:nonzero;fill:#e25469;fill-opacity:1;" d="M 554.285156 518.050781 C 536.449219 486.328125 478.625 615.847656 469.050781 655.265625 C 459.289062 694.683594 478.4375 673.847656 510.542969 618.472656 C 542.644531 563.289062 561.230469 530.441406 554.285156 518.050781 Z M 554.285156 518.050781 "/><path style=" stroke:none;fill-rule:nonzero;fill:#e25469;fill-opacity:1;" d="M 465.484375 654.136719 L 459.097656 667.277344 L 480.125 677.414062 L 485.945312 664.273438 Z M 465.484375 654.136719 "/><path style=" stroke:none;fill-rule:nonzero;fill:#263156;fill-opacity:1;" d="M 482.191406 677.226562 C 482.191406 677.226562 482.566406 687.363281 491.390625 704.445312 C 500.214844 721.523438 504.910156 720.960938 503.40625 725.089844 C 501.90625 729.222656 442.765625 696.746094 442.765625 696.746094 L 460.039062 665.402344 C 459.851562 665.402344 482.566406 676.289062 482.191406 677.226562 Z M 482.191406 677.226562 "/><path style=" stroke:none;fill-rule:nonzero;fill:#263156;fill-opacity:1;" d="M 626.191406 390.410156 C 626.191406 390.410156 653.039062 493.085938 655.292969 518.050781 C 657.542969 543.015625 637.269531 683.984375 637.269531 683.984375 L 605.539062 682.480469 C 605.539062 682.480469 606.101562 564.601562 610.609375 532.128906 L 581.507812 447.472656 C 581.507812 447.472656 568.179688 520.867188 563.296875 535.320312 C 557.101562 553.714844 487.824219 668.78125 487.824219 668.78125 L 461.914062 655.265625 C 461.914062 655.265625 485.570312 574.175781 524.246094 517.488281 C 524.246094 517.488281 513.734375 389.472656 531.570312 375.394531 C 549.402344 361.128906 626.191406 390.410156 626.191406 390.410156 Z M 626.191406 390.410156 "/><path style=" stroke:none;fill-rule:nonzero;fill:#e25469;fill-opacity:1;" d="M 608.730469 237.054688 C 593.710938 250.382812 631.261719 352.683594 643.464844 345.359375 C 666.179688 343.484375 637.082031 220.535156 608.730469 237.054688 Z M 608.730469 237.054688 "/><path style=" stroke:none;fill-rule:nonzero;fill:#e25469;fill-opacity:1;" d="M 637.082031 320.585938 C 634.453125 323.023438 633.511719 326.777344 634.078125 330.34375 C 639.707031 358.125 710.113281 440.714844 713.867188 433.394531 C 718.375 429.640625 657.167969 302.1875 637.082031 320.585938 Z M 637.082031 320.585938 "/><path style=" stroke:none;fill-rule:nonzero;fill:#e25469;fill-opacity:1;" d="M 725.695312 444.65625 C 725.507812 444.847656 725.320312 444.847656 725.320312 444.847656 L 718.9375 445.410156 C 717.996094 445.785156 714.617188 444.847656 713.679688 444.28125 L 709.363281 441.65625 C 705.605469 438.839844 702.414062 435.273438 699.972656 431.332031 L 695.84375 421.382812 L 694.90625 419.316406 L 697.535156 417.628906 L 705.417969 412.558594 L 707.109375 411.433594 L 708.046875 411.621094 L 715.179688 413.5 C 717.246094 414.0625 719.125 415.1875 720.625 416.691406 L 725.695312 424.761719 C 725.695312 424.761719 723.628906 425.511719 721 423.824219 C 719.875 423.070312 717.808594 422.695312 715.933594 422.507812 L 719.3125 426.636719 L 726.820312 437.335938 C 729.261719 439.589844 728.511719 443.34375 725.695312 444.65625 Z M 725.695312 444.65625 "/><path style=" stroke:none;fill-rule:nonzero;fill:#263156;fill-opacity:1;" d="M 612.859375 296.933594 C 608.917969 284.917969 595.402344 238.554688 611.171875 233.113281 C 630.132812 226.542969 637.644531 254.886719 639.519531 259.578125 C 641.398438 264.273438 647.21875 286.046875 647.21875 286.046875 Z M 612.859375 296.933594 "/><path style=" stroke:none;fill-rule:nonzero;fill:#263156;fill-opacity:1;" d="M 529.128906 374.644531 C 528 382.714844 625.628906 398.859375 626.191406 390.410156 C 626.378906 358.3125 631.261719 330.53125 635.015625 307.257812 C 635.578125 303.503906 636.140625 299.75 636.703125 296.183594 C 641.773438 260.140625 640.460938 236.679688 605.539062 225.605469 L 576.0625 218.847656 C 538.515625 218.847656 535.886719 233.113281 536.449219 266.710938 C 536.636719 277.785156 537.011719 290.738281 536.636719 306.128906 C 535.886719 325.464844 534.195312 348.175781 529.128906 374.644531 Z M 529.128906 374.644531 "/><g clip-rule="nonzero" clip-path="url(#82ebd776df)"><path style=" stroke:none;fill-rule:nonzero;fill:#3e4d77;fill-opacity:1;" d="M 744.84375 293.742188 L 745.40625 555.40625 C 745.40625 564.226562 738.273438 571.359375 729.449219 571.546875 L 245.449219 572.484375 C 236.625 572.484375 229.488281 565.351562 229.488281 556.53125 L 228.925781 294.867188 C 228.925781 286.046875 236.058594 278.914062 244.882812 278.914062 L 728.886719 277.976562 C 737.710938 277.785156 744.84375 284.917969 744.84375 293.742188 Z M 744.84375 293.742188 "/></g><path style=" stroke:none;fill-rule:nonzero;fill:#263156;fill-opacity:1;" d="M 443.703125 278.351562 C 452.152344 288.675781 457.410156 301.4375 458.347656 314.765625 C 459.664062 332.035156 454.03125 349.304688 448.585938 366.195312 C 441.828125 386.84375 434.878906 408.242188 441.265625 429.265625 C 444.457031 439.589844 450.652344 448.789062 456.660156 457.609375 C 462.101562 465.492188 467.734375 473.941406 470.925781 482.949219 C 473.554688 490.457031 474.683594 498.53125 475.808594 506.414062 C 476.371094 510.917969 477.121094 515.609375 478.0625 520.117188 C 481.816406 538.136719 490.265625 555.78125 503.21875 571.921875 L 506.222656 571.921875 C 492.894531 555.78125 484.070312 537.949219 480.3125 519.742188 C 479.375 515.234375 478.8125 510.730469 478.25 506.226562 C 477.121094 498.34375 475.996094 490.082031 473.367188 482.199219 C 469.988281 472.8125 464.355469 464.554688 458.910156 456.296875 C 453.089844 447.660156 446.894531 438.652344 443.890625 428.515625 C 437.695312 408.242188 444.269531 388.160156 451.214844 366.761719 C 456.660156 349.679688 462.480469 332.222656 461.164062 314.578125 C 460.226562 301.4375 455.15625 288.863281 447.082031 278.351562 Z M 380.808594 278.351562 L 376.304688 278.351562 C 381.1875 280.789062 385.128906 284.542969 387.757812 289.425781 C 391.886719 297.121094 391.886719 306.507812 387.945312 314.203125 C 385.128906 319.644531 380.808594 323.585938 376.117188 328.09375 C 372.738281 331.285156 369.171875 334.660156 366.355469 338.417969 C 357.34375 350.617188 356.589844 366.195312 356.027344 381.402344 C 356.027344 383.089844 355.839844 384.59375 355.839844 386.09375 C 353.773438 422.695312 344.011719 450.851562 326.742188 469.8125 C 316.226562 481.261719 302.898438 489.519531 289.941406 497.777344 C 278.679688 504.910156 265.910156 512.796875 252.019531 515.421875 C 244.320312 516.925781 236.4375 516.738281 229.300781 516.175781 L 229.300781 518.425781 C 232.304688 518.613281 235.308594 518.800781 238.5 518.800781 C 243.007812 518.800781 247.699219 518.425781 252.394531 517.675781 C 266.664062 515.046875 279.617188 506.976562 291.070312 499.65625 C 304.210938 491.398438 317.730469 482.949219 328.242188 471.3125 C 345.890625 451.980469 356.027344 423.257812 357.90625 386.28125 C 357.90625 384.78125 358.09375 383.089844 358.09375 381.589844 C 358.84375 366.761719 359.59375 351.367188 368.042969 339.730469 C 370.671875 335.976562 374.238281 332.785156 377.617188 329.59375 C 382.125 325.277344 386.816406 320.960938 389.820312 315.140625 C 394.140625 306.882812 394.140625 296.558594 389.632812 288.296875 C 387.757812 284.355469 384.566406 280.976562 380.808594 278.351562 Z M 716.683594 363.570312 C 703.164062 364.695312 690.773438 370.890625 682.890625 380.648438 C 676.695312 388.347656 672.9375 397.542969 669.183594 406.554688 C 665.617188 415.5625 661.863281 424.761719 655.667969 432.082031 C 644.402344 445.785156 626.566406 451.601562 609.292969 457.234375 C 604.976562 458.546875 600.65625 460.050781 596.339844 461.550781 C 582.632812 466.621094 569.304688 473.1875 557.101562 481.261719 C 553.535156 483.511719 549.589844 486.328125 547.152344 490.269531 C 543.773438 495.714844 543.773438 502.285156 543.960938 507.539062 C 545.085938 530.253906 553.722656 551.839844 563.671875 571.359375 L 566.300781 571.359375 C 556.351562 551.652344 547.527344 530.066406 546.398438 507.351562 C 546.210938 502.097656 546.210938 496.089844 549.214844 491.398438 C 551.46875 487.832031 555.035156 485.203125 558.414062 482.949219 C 570.429688 474.878906 583.574219 468.308594 597.089844 463.429688 C 601.222656 461.925781 605.726562 460.425781 609.855469 459.113281 C 627.316406 453.480469 645.527344 447.472656 657.355469 433.394531 C 663.738281 425.699219 667.496094 416.3125 671.25 407.117188 C 674.816406 398.292969 678.570312 389.097656 684.578125 381.777344 C 692.089844 372.578125 703.730469 366.761719 716.683594 365.632812 C 726.820312 364.695312 736.773438 366.949219 744.84375 371.640625 L 744.84375 369.011719 C 736.773438 364.695312 726.820312 362.628906 716.683594 363.570312 Z M 519.554688 386.84375 C 520.679688 393.789062 521.804688 401.109375 524.621094 407.679688 C 530.066406 420.070312 541.894531 429.640625 554.847656 431.894531 C 556.914062 432.269531 559.167969 432.457031 561.230469 432.457031 C 572.683594 432.457031 584.136719 427.203125 591.082031 418.566406 C 595.402344 413.125 598.21875 406.554688 600.65625 400.171875 C 601.410156 398.480469 602.160156 396.605469 602.910156 394.914062 C 609.292969 380.273438 618.679688 366.570312 629.945312 355.308594 C 633.886719 351.367188 638.207031 347.800781 642.148438 344.234375 C 649.847656 337.664062 657.730469 330.71875 663.925781 322.460938 C 668.433594 316.265625 672.375 308.945312 676.320312 298.808594 C 678.757812 292.617188 681.199219 285.484375 681.949219 277.976562 L 679.699219 277.976562 C 679.132812 285.109375 676.695312 292.050781 674.253906 297.871094 C 670.3125 307.820312 666.554688 314.953125 662.050781 320.960938 C 656.042969 329.03125 648.34375 335.789062 640.648438 342.359375 C 636.515625 345.925781 632.199219 349.679688 628.257812 353.621094 C 616.617188 365.070312 607.042969 378.960938 600.65625 393.976562 C 599.90625 395.667969 599.15625 397.542969 598.40625 399.234375 C 595.964844 405.425781 593.335938 411.808594 589.019531 417.066406 C 581.320312 426.824219 567.613281 431.894531 555.035156 429.640625 C 542.644531 427.390625 531.570312 418.566406 526.5 406.742188 C 523.871094 400.359375 522.746094 393.414062 521.617188 386.46875 C 520.304688 377.835938 518.800781 368.824219 514.296875 361.316406 C 512.042969 357.5625 509.039062 354.371094 506.222656 351.179688 C 503.40625 347.988281 500.402344 344.609375 498.148438 341.042969 C 493.269531 332.785156 492.707031 322.648438 492.707031 315.703125 C 492.707031 309.320312 493.082031 302.75 493.644531 296.371094 C 494.019531 290.363281 494.582031 284.167969 494.582031 278.164062 L 492.328125 278.164062 C 492.328125 284.167969 491.953125 290.363281 491.390625 296.183594 C 491.015625 302.5625 490.453125 309.132812 490.453125 315.703125 C 490.453125 322.835938 491.015625 333.347656 496.273438 342.171875 C 498.527344 346.113281 501.71875 349.492188 504.535156 352.683594 C 507.347656 355.683594 510.164062 358.875 512.417969 362.441406 C 516.925781 369.761719 518.238281 378.023438 519.554688 386.84375 Z M 519.554688 386.84375 "/><path style=" stroke:none;fill-rule:nonzero;fill:#d4def9;fill-opacity:1;" d="M 347.957031 424.011719 L 272.671875 424.199219 C 270.042969 424.199219 267.789062 421.945312 267.789062 419.316406 L 267.789062 373.894531 C 267.789062 371.265625 270.042969 369.011719 272.671875 369.011719 L 347.957031 368.824219 C 350.582031 368.824219 352.835938 371.078125 352.835938 373.703125 L 352.835938 419.128906 C 352.835938 421.757812 350.582031 424.011719 347.957031 424.011719 Z M 347.957031 424.011719 "/><path style=" stroke:none;fill-rule:nonzero;fill:#263156;fill-opacity:1;" d="M 324.113281 385.71875 L 352.460938 385.71875 L 352.460938 383.652344 L 323.171875 383.652344 L 319.980469 387.78125 L 319.980469 386.65625 L 311.53125 386.65625 L 311.53125 368.824219 L 309.28125 368.824219 L 309.28125 386.65625 L 300.832031 386.65625 L 300.832031 387.59375 L 297.640625 383.652344 L 267.976562 383.652344 L 267.976562 385.71875 L 296.511719 385.71875 L 300.644531 390.785156 L 300.644531 395.292969 L 267.976562 395.292969 L 267.976562 397.355469 L 300.644531 397.355469 L 300.644531 401.859375 L 296.511719 406.929688 L 267.976562 406.929688 L 267.976562 408.992188 L 297.640625 408.992188 L 300.832031 405.050781 L 300.832031 405.992188 L 309.28125 405.992188 L 309.28125 424.386719 L 311.53125 424.386719 L 311.53125 405.992188 L 319.980469 405.992188 L 319.980469 404.863281 L 323.171875 408.992188 L 352.460938 408.992188 L 352.460938 406.929688 L 324.113281 406.929688 L 319.792969 401.671875 L 319.792969 397.355469 L 352.273438 397.355469 L 352.273438 395.292969 L 319.792969 395.292969 L 319.792969 390.972656 Z M 317.539062 403.738281 L 302.898438 403.738281 L 302.898438 389.097656 L 317.539062 389.097656 Z M 317.539062 403.738281 "/><path style=" stroke:none;fill-rule:nonzero;fill:#d4def9;fill-opacity:1;" d="M 279.804688 467.746094 C 286.1875 467.746094 288.066406 472.625 288.066406 479.007812 C 288.066406 485.578125 286.1875 490.457031 279.804688 490.457031 C 273.421875 490.457031 271.542969 485.578125 271.542969 479.007812 C 271.542969 472.4375 273.421875 467.746094 279.804688 467.746094 Z M 279.804688 471.6875 C 276.238281 471.6875 275.675781 475.253906 275.675781 479.007812 C 275.675781 482.949219 276.050781 486.515625 279.804688 486.515625 C 283.371094 486.515625 283.933594 483.136719 283.933594 479.007812 C 283.933594 475.066406 283.371094 471.6875 279.804688 471.6875 Z M 279.804688 471.6875 "/><path style=" stroke:none;fill-rule:nonzero;fill:#d4def9;fill-opacity:1;" d="M 299.707031 467.558594 C 306.089844 467.558594 307.964844 472.4375 307.964844 478.820312 C 307.964844 485.390625 306.089844 490.269531 299.707031 490.269531 C 293.320312 490.269531 291.445312 485.390625 291.445312 478.820312 C 291.257812 472.4375 293.320312 467.558594 299.707031 467.558594 Z M 299.707031 471.6875 C 296.136719 471.6875 295.574219 475.253906 295.574219 479.007812 C 295.574219 482.949219 295.949219 486.515625 299.707031 486.515625 C 303.460938 486.515625 303.835938 483.136719 303.835938 479.007812 C 303.648438 475.066406 303.273438 471.6875 299.707031 471.6875 Z M 299.707031 471.6875 "/><path style=" stroke:none;fill-rule:nonzero;fill:#d4def9;fill-opacity:1;" d="M 319.417969 467.558594 C 325.800781 467.558594 327.679688 472.4375 327.679688 478.820312 C 327.679688 485.390625 325.800781 490.269531 319.417969 490.269531 C 313.035156 490.269531 311.15625 485.390625 311.15625 478.820312 C 311.15625 472.4375 313.222656 467.558594 319.417969 467.558594 Z M 319.417969 471.5 C 315.851562 471.5 315.289062 475.066406 315.289062 478.820312 C 315.289062 482.761719 315.664062 486.328125 319.417969 486.328125 C 323.171875 486.328125 323.546875 482.949219 323.546875 478.820312 C 323.546875 475.066406 323.171875 471.5 319.417969 471.5 Z M 319.417969 471.5 "/><path style=" stroke:none;fill-rule:nonzero;fill:#d4def9;fill-opacity:1;" d="M 339.320312 467.558594 C 345.703125 467.558594 347.578125 472.4375 347.578125 478.820312 C 347.578125 485.390625 345.703125 490.269531 339.320312 490.269531 C 332.9375 490.269531 331.058594 485.390625 331.058594 478.820312 C 331.058594 472.4375 332.9375 467.558594 339.320312 467.558594 Z M 339.320312 471.5 C 335.75 471.5 335.1875 475.066406 335.1875 478.820312 C 335.1875 482.761719 335.5625 486.328125 339.320312 486.328125 C 342.886719 486.328125 343.449219 482.949219 343.449219 478.820312 C 343.449219 475.066406 342.886719 471.5 339.320312 471.5 Z M 339.320312 471.5 "/><path style=" stroke:none;fill-rule:nonzero;fill:#d4def9;fill-opacity:1;" d="M 375.179688 471.875 L 372.175781 471.875 L 372.175781 467.933594 L 379.496094 467.933594 L 379.496094 490.269531 L 374.992188 490.269531 Z M 375.179688 471.875 "/><path style=" stroke:none;fill-rule:nonzero;fill:#d4def9;fill-opacity:1;" d="M 386.441406 471.875 L 383.4375 471.875 L 383.4375 467.933594 L 390.761719 467.933594 L 390.761719 490.269531 L 386.253906 490.269531 Z M 386.441406 471.875 "/><path style=" stroke:none;fill-rule:nonzero;fill:#d4def9;fill-opacity:1;" d="M 397.519531 471.875 L 394.515625 471.875 L 394.515625 467.933594 L 401.835938 467.933594 L 401.835938 490.269531 L 397.332031 490.269531 Z M 397.519531 471.875 "/><path style=" stroke:none;fill-rule:nonzero;fill:#d4def9;fill-opacity:1;" d="M 408.597656 471.875 L 405.59375 471.875 L 405.59375 467.933594 L 412.914062 467.933594 L 412.914062 490.269531 L 408.410156 490.269531 Z M 408.597656 471.875 "/><path style=" stroke:none;fill-rule:nonzero;fill:#d4def9;fill-opacity:1;" d="M 439.011719 486.703125 C 444.078125 482.386719 449.335938 478.445312 449.335938 474.316406 C 449.335938 472.25 448.398438 470.9375 446.332031 470.9375 C 444.269531 470.9375 443.140625 472.4375 443.140625 474.691406 L 439.011719 474.691406 C 439.199219 469.621094 442.390625 467.183594 446.519531 467.183594 C 451.402344 467.183594 453.84375 470 453.84375 473.941406 C 453.84375 479.195312 448.773438 483.136719 445.207031 486.140625 L 454.21875 486.140625 L 454.21875 489.707031 L 439.011719 489.707031 Z M 439.011719 486.703125 "/><path style=" stroke:none;fill-rule:nonzero;fill:#d4def9;fill-opacity:1;" d="M 456.660156 486.703125 C 461.726562 482.386719 466.984375 478.445312 466.984375 474.316406 C 466.984375 472.25 466.046875 470.9375 463.980469 470.9375 C 461.914062 470.9375 460.789062 472.4375 460.789062 474.691406 L 456.660156 474.691406 C 456.847656 469.621094 460.039062 467.183594 464.167969 467.183594 C 469.050781 467.183594 471.492188 470 471.492188 473.941406 C 471.492188 479.195312 466.421875 483.136719 462.855469 486.140625 L 471.867188 486.140625 L 471.867188 489.707031 L 456.660156 489.707031 Z M 456.660156 486.703125 "/><path style=" stroke:none;fill-rule:nonzero;fill:#d4def9;fill-opacity:1;" d="M 474.117188 486.515625 C 479.1875 482.199219 484.445312 478.257812 484.445312 474.128906 C 484.445312 472.0625 483.507812 470.75 481.441406 470.75 C 479.375 470.75 478.25 472.25 478.25 474.503906 L 474.117188 474.503906 C 474.304688 469.433594 477.5 466.996094 481.628906 466.996094 C 486.511719 466.996094 488.949219 469.8125 488.949219 473.753906 C 488.949219 479.007812 483.882812 482.949219 480.3125 485.953125 L 489.324219 485.953125 L 489.324219 489.519531 L 474.117188 489.519531 Z M 474.117188 486.515625 "/><path style=" stroke:none;fill-rule:nonzero;fill:#d4def9;fill-opacity:1;" d="M 491.765625 486.515625 C 496.835938 482.199219 502.09375 478.257812 502.09375 474.128906 C 502.09375 472.0625 501.152344 470.75 499.089844 470.75 C 497.023438 470.75 495.898438 472.25 495.898438 474.503906 L 491.765625 474.503906 C 491.953125 469.433594 495.144531 466.996094 499.277344 466.996094 C 504.15625 466.996094 506.597656 469.8125 506.597656 473.753906 C 506.597656 479.007812 501.53125 482.949219 497.960938 485.953125 L 506.972656 485.953125 L 506.972656 489.519531 L 491.765625 489.519531 Z M 491.765625 486.515625 "/><path style=" stroke:none;fill-rule:nonzero;fill:#d4def9;fill-opacity:1;" d="M 539.078125 466.996094 C 543.773438 466.996094 546.210938 469.621094 546.210938 472.8125 C 546.210938 475.628906 544.523438 477.320312 542.832031 477.882812 L 542.832031 478.070312 C 545.085938 478.820312 546.585938 480.699219 546.585938 483.699219 C 546.585938 487.265625 543.960938 490.082031 539.265625 490.082031 C 534.761719 490.082031 531.570312 487.832031 531.378906 483.136719 L 535.511719 483.136719 C 535.699219 485.015625 536.824219 486.515625 539.265625 486.515625 C 541.332031 486.515625 542.457031 485.203125 542.457031 483.324219 C 542.457031 480.886719 540.769531 479.945312 537.578125 479.945312 L 536.636719 479.945312 L 536.636719 476.378906 L 537.578125 476.378906 C 540.015625 476.378906 541.894531 475.628906 541.894531 473.378906 C 541.894531 471.6875 540.769531 470.5625 538.890625 470.5625 C 536.824219 470.5625 535.886719 471.875 535.699219 473.378906 L 531.566406 473.378906 C 531.945312 469.246094 534.761719 466.996094 539.078125 466.996094 Z M 539.078125 466.996094 "/><path style=" stroke:none;fill-rule:nonzero;fill:#d4def9;fill-opacity:1;" d="M 557.476562 466.996094 C 562.171875 466.996094 564.609375 469.621094 564.609375 472.8125 C 564.609375 475.628906 562.921875 477.320312 561.230469 477.882812 L 561.230469 478.070312 C 563.484375 478.820312 564.988281 480.699219 564.988281 483.699219 C 564.988281 487.265625 562.359375 490.082031 557.664062 490.082031 C 553.160156 490.082031 549.96875 487.832031 549.78125 483.136719 L 553.910156 483.136719 C 554.097656 485.015625 555.222656 486.515625 557.664062 486.515625 C 559.730469 486.515625 560.855469 485.203125 560.855469 483.324219 C 560.855469 480.886719 559.167969 479.945312 555.976562 479.945312 L 555.035156 479.945312 L 555.035156 476.378906 L 555.976562 476.378906 C 558.414062 476.378906 560.292969 475.628906 560.292969 473.378906 C 560.292969 471.6875 559.167969 470.5625 557.289062 470.5625 C 555.222656 470.5625 554.285156 471.875 554.097656 473.378906 L 549.96875 473.378906 C 550.34375 469.246094 553.160156 466.996094 557.476562 466.996094 Z M 557.476562 466.996094 "/><path style=" stroke:none;fill-rule:nonzero;fill:#d4def9;fill-opacity:1;" d="M 575.875 466.996094 C 580.570312 466.996094 583.011719 469.621094 583.011719 472.8125 C 583.011719 475.628906 581.320312 477.320312 579.628906 477.882812 L 579.628906 478.070312 C 581.882812 478.820312 583.386719 480.699219 583.386719 483.699219 C 583.386719 487.265625 580.757812 490.082031 576.0625 490.082031 C 571.558594 490.082031 568.367188 487.832031 568.179688 483.136719 L 572.308594 483.136719 C 572.496094 485.015625 573.621094 486.515625 576.0625 486.515625 C 578.128906 486.515625 579.253906 485.203125 579.253906 483.324219 C 579.253906 480.886719 577.566406 479.945312 574.375 479.945312 L 573.433594 479.945312 L 573.433594 476.378906 L 574.375 476.378906 C 576.816406 476.378906 578.691406 475.628906 578.691406 473.378906 C 578.691406 471.6875 577.566406 470.5625 575.6875 470.5625 C 573.621094 470.5625 572.683594 471.875 572.496094 473.378906 L 568.367188 473.378906 C 568.742188 469.246094 571.558594 466.996094 575.875 466.996094 Z M 575.875 466.996094 "/><path style=" stroke:none;fill-rule:nonzero;fill:#d4def9;fill-opacity:1;" d="M 594.273438 466.996094 C 598.96875 466.996094 601.410156 469.621094 601.410156 472.8125 C 601.410156 475.628906 599.71875 477.320312 598.03125 477.882812 L 598.03125 478.070312 C 600.28125 478.820312 601.785156 480.699219 601.785156 483.699219 C 601.785156 487.265625 599.15625 490.082031 594.460938 490.082031 C 589.957031 490.082031 586.765625 487.832031 586.578125 483.136719 L 590.707031 483.136719 C 590.894531 485.015625 592.023438 486.515625 594.460938 486.515625 C 596.527344 486.515625 597.652344 485.203125 597.652344 483.324219 C 597.652344 480.886719 595.964844 479.945312 592.773438 479.945312 L 591.835938 479.945312 L 591.835938 476.378906 L 592.773438 476.378906 C 595.214844 476.378906 597.089844 475.628906 597.089844 473.378906 C 597.089844 471.6875 595.964844 470.5625 594.085938 470.5625 C 592.023438 470.5625 591.082031 471.875 590.894531 473.378906 L 586.765625 473.378906 C 587.140625 469.246094 589.957031 466.996094 594.273438 466.996094 Z M 594.273438 466.996094 "/><path style=" stroke:none;fill-rule:nonzero;fill:#d4def9;fill-opacity:1;" d="M 637.644531 485.390625 L 626.941406 485.390625 L 626.941406 482.011719 L 636.890625 467.558594 L 641.960938 467.558594 L 641.960938 481.636719 L 644.589844 481.636719 L 644.589844 485.390625 L 641.960938 485.390625 L 641.960938 489.707031 L 637.644531 489.707031 Z M 638.019531 481.636719 L 638.019531 472.25 L 631.824219 481.636719 Z M 638.019531 481.636719 "/><path style=" stroke:none;fill-rule:nonzero;fill:#d4def9;fill-opacity:1;" d="M 657.917969 485.390625 L 647.21875 485.390625 L 647.21875 482.011719 L 657.167969 467.558594 L 662.238281 467.558594 L 662.238281 481.636719 L 664.867188 481.636719 L 664.867188 485.390625 L 662.238281 485.390625 L 662.238281 489.707031 L 657.917969 489.707031 Z M 658.296875 481.636719 L 658.296875 472.25 L 652.101562 481.636719 Z M 658.296875 481.636719 "/><path style=" stroke:none;fill-rule:nonzero;fill:#d4def9;fill-opacity:1;" d="M 678.382812 485.390625 L 667.683594 485.390625 L 667.683594 482.011719 L 677.632812 467.558594 L 682.703125 467.558594 L 682.703125 481.636719 L 685.332031 481.636719 L 685.332031 485.390625 L 682.703125 485.390625 L 682.703125 489.707031 L 678.382812 489.707031 Z M 678.570312 481.636719 L 678.570312 472.25 L 672.375 481.636719 Z M 678.570312 481.636719 "/><path style=" stroke:none;fill-rule:nonzero;fill:#d4def9;fill-opacity:1;" d="M 698.660156 485.203125 L 687.957031 485.203125 L 687.957031 481.824219 L 697.910156 467.371094 L 702.976562 467.371094 L 702.976562 481.449219 L 705.605469 481.449219 L 705.605469 485.203125 L 702.976562 485.203125 L 702.976562 489.519531 L 698.660156 489.519531 Z M 698.847656 481.449219 L 698.847656 472.0625 L 692.652344 481.449219 Z M 698.847656 481.449219 "/><path style=" stroke:none;fill-rule:nonzero;fill:#d4def9;fill-opacity:1;" d="M 275.742188 522.816406 L 356.285156 522.816406 L 356.285156 532.386719 L 275.742188 532.386719 Z M 275.742188 522.816406 "/><path style=" stroke:none;fill-rule:nonzero;fill:#d4def9;fill-opacity:1;" d="M 592.824219 522.730469 L 703.40625 522.730469 L 703.40625 548.632812 L 592.824219 548.632812 Z M 592.824219 522.730469 "/><path style=" stroke:none;fill-rule:nonzero;fill:#d4def9;fill-opacity:1;" d="M 635.578125 319.644531 C 639.894531 319.644531 643.277344 321.898438 644.589844 325.839844 L 640.273438 325.839844 C 639.332031 323.960938 637.644531 323.023438 635.578125 323.023438 C 632.199219 323.023438 629.945312 325.464844 629.945312 329.40625 C 629.945312 333.347656 632.386719 335.789062 635.765625 335.789062 C 637.832031 335.789062 639.519531 334.851562 640.273438 332.972656 L 644.589844 332.972656 C 643.277344 336.914062 639.894531 339.167969 635.578125 339.167969 C 630.132812 339.167969 625.816406 335.226562 625.816406 329.40625 C 625.816406 323.585938 630.132812 319.644531 635.578125 319.644531 Z M 635.578125 319.644531 "/><path style=" stroke:none;fill-rule:nonzero;fill:#d4def9;fill-opacity:1;" d="M 659.609375 335.414062 L 651.910156 335.414062 L 650.597656 338.980469 L 646.65625 338.980469 L 653.414062 319.832031 L 657.917969 319.832031 L 664.867188 338.980469 L 660.734375 338.980469 Z M 655.855469 324.339844 L 653.039062 332.410156 L 658.484375 332.410156 Z M 655.855469 324.339844 "/><path style=" stroke:none;fill-rule:nonzero;fill:#d4def9;fill-opacity:1;" d="M 674.628906 319.832031 C 679.324219 319.832031 681.574219 322.460938 681.574219 325.652344 C 681.574219 327.90625 680.261719 330.34375 677.257812 331.09375 L 681.761719 338.792969 L 677.257812 338.792969 L 672.9375 331.285156 L 671.0625 331.285156 L 671.0625 338.792969 L 667.308594 338.792969 L 667.308594 319.644531 Z M 674.441406 323.023438 L 671.25 323.023438 L 671.25 328.65625 L 674.441406 328.65625 C 676.507812 328.65625 677.445312 327.527344 677.445312 325.839844 C 677.632812 324.152344 676.695312 323.023438 674.441406 323.023438 Z M 674.441406 323.023438 "/><path style=" stroke:none;fill-rule:nonzero;fill:#d4def9;fill-opacity:1;" d="M 701.851562 329.40625 C 701.851562 335.226562 697.910156 338.980469 691.714844 338.980469 L 684.953125 338.980469 L 684.953125 319.832031 L 691.714844 319.832031 C 697.910156 319.832031 701.851562 323.585938 701.851562 329.40625 Z M 691.527344 335.601562 C 695.46875 335.601562 697.910156 333.347656 697.722656 329.40625 C 697.722656 325.464844 695.46875 323.023438 691.339844 323.023438 L 688.710938 323.023438 L 688.710938 335.601562 Z M 691.527344 335.601562 "/><path style=" stroke:none;fill-rule:nonzero;fill:#e25469;fill-opacity:1;" d="M 582.070312 207.023438 C 579.820312 215.46875 576.4375 216.78125 577.378906 221.289062 C 578.503906 228.234375 598.03125 250.757812 603.285156 235.929688 L 603.660156 234.613281 L 607.792969 219.410156 C 617.179688 224.667969 620.933594 217.722656 623.75 205.707031 C 623.9375 205.332031 623.9375 204.769531 624.125 204.394531 C 626.003906 196.132812 627.503906 186 630.132812 175.675781 C 620.183594 138.882812 567.992188 145.078125 584.886719 197.636719 C 584.511719 197.636719 584.324219 198.574219 582.070312 207.023438 Z M 582.070312 207.023438 "/><path style=" stroke:none;fill-rule:nonzero;fill:#263156;fill-opacity:1;" d="M 584.511719 197.636719 C 585.261719 197.636719 585.828125 179.617188 589.394531 180.367188 C 592.023438 180.929688 592.210938 185.246094 591.832031 189.566406 L 596.152344 189.191406 C 596.527344 181.304688 598.78125 171.921875 601.410156 170.042969 C 606.289062 166.851562 615.488281 174.734375 626.003906 178.488281 C 632.761719 180.929688 636.515625 173.609375 638.394531 167.789062 C 639.707031 163.660156 638.582031 159.15625 635.203125 156.339844 C 627.878906 150.148438 617.554688 151.835938 605.726562 149.394531 C 591.082031 146.390625 586.953125 154.839844 582.257812 167.039062 C 577.753906 179.429688 583.949219 197.636719 584.511719 197.636719 Z M 584.511719 197.636719 "/><path style=" stroke:none;fill-rule:nonzero;fill:#263156;fill-opacity:1;" d="M 597.839844 178.867188 C 589.957031 176.800781 582.070312 167.980469 582.070312 167.980469 C 582.070312 167.980469 580.195312 170.792969 580.382812 175.300781 C 580.570312 179.804688 591.269531 181.867188 596.339844 183.558594 C 601.410156 185.246094 602.160156 190.691406 606.664062 193.320312 C 611.171875 195.945312 623.9375 198.386719 625.628906 197.074219 C 627.503906 195.757812 627.878906 185.8125 627.878906 185.8125 C 619.433594 182.433594 605.726562 180.929688 597.839844 178.867188 Z M 614.738281 191.816406 C 613.050781 191.816406 611.546875 190.503906 611.546875 189 C 611.546875 187.5 612.859375 186.1875 614.738281 186.1875 C 616.429688 186.1875 617.929688 187.5 617.929688 189 C 617.742188 190.503906 616.429688 191.816406 614.738281 191.816406 Z M 623.75 193.132812 C 622.25 193.132812 621.121094 192.191406 621.121094 190.878906 C 621.121094 189.566406 622.25 188.625 623.75 188.625 C 625.253906 188.625 626.378906 189.566406 626.378906 190.878906 C 626.378906 192.191406 625.066406 193.132812 623.75 193.132812 Z M 623.75 193.132812 "/><path style=" stroke:none;fill-rule:nonzero;fill:#263156;fill-opacity:1;" d="M 580.945312 171.167969 L 573.058594 171.734375 C 573.058594 171.734375 576.0625 178.300781 576.0625 178.113281 C 576.0625 177.925781 581.320312 175.863281 581.320312 175.863281 Z M 580.945312 171.167969 "/><path style=" stroke:none;fill-rule:nonzero;fill:#263156;fill-opacity:1;" d="M 582.632812 169.292969 C 582.632812 168.730469 579.441406 161.410156 578.503906 161.785156 C 575.5 162.722656 572.308594 167.789062 574 168.542969 C 575.6875 169.292969 580.945312 173.046875 580.945312 173.046875 Z M 582.632812 169.292969 "/><path style=" stroke:none;fill-rule:nonzero;fill:#263156;fill-opacity:1;" d="M 624.3125 190.878906 C 624.3125 191.027344 624.285156 191.171875 624.226562 191.308594 C 624.171875 191.449219 624.089844 191.570312 623.984375 191.675781 C 623.878906 191.78125 623.757812 191.863281 623.617188 191.917969 C 623.480469 191.976562 623.335938 192.003906 623.1875 192.003906 C 623.039062 192.003906 622.894531 191.976562 622.757812 191.917969 C 622.617188 191.863281 622.496094 191.78125 622.390625 191.675781 C 622.285156 191.570312 622.203125 191.449219 622.144531 191.308594 C 622.089844 191.171875 622.0625 191.027344 622.0625 190.878906 C 622.0625 190.730469 622.089844 190.585938 622.144531 190.449219 C 622.203125 190.308594 622.285156 190.1875 622.390625 190.082031 C 622.496094 189.976562 622.617188 189.894531 622.757812 189.839844 C 622.894531 189.78125 623.039062 189.753906 623.1875 189.753906 C 623.335938 189.753906 623.480469 189.78125 623.617188 189.839844 C 623.757812 189.894531 623.878906 189.976562 623.984375 190.082031 C 624.089844 190.1875 624.171875 190.308594 624.226562 190.449219 C 624.285156 190.585938 624.3125 190.730469 624.3125 190.878906 Z M 624.3125 190.878906 "/><path style=" stroke:none;fill-rule:nonzero;fill:#263156;fill-opacity:1;" d="M 616.429688 189.1875 C 616.429688 189.339844 616.398438 189.484375 616.34375 189.621094 C 616.285156 189.757812 616.203125 189.878906 616.097656 189.984375 C 615.992188 190.089844 615.871094 190.171875 615.734375 190.230469 C 615.59375 190.285156 615.453125 190.316406 615.300781 190.316406 C 615.152344 190.316406 615.007812 190.285156 614.871094 190.230469 C 614.734375 190.171875 614.609375 190.089844 614.503906 189.984375 C 614.398438 189.878906 614.316406 189.757812 614.261719 189.621094 C 614.203125 189.484375 614.175781 189.339844 614.175781 189.1875 C 614.175781 189.039062 614.203125 188.894531 614.261719 188.757812 C 614.316406 188.621094 614.398438 188.5 614.503906 188.394531 C 614.609375 188.289062 614.734375 188.207031 614.871094 188.148438 C 615.007812 188.089844 615.152344 188.0625 615.300781 188.0625 C 615.453125 188.0625 615.59375 188.089844 615.734375 188.148438 C 615.871094 188.207031 615.992188 188.289062 616.097656 188.394531 C 616.203125 188.5 616.285156 188.621094 616.34375 188.757812 C 616.398438 188.894531 616.429688 189.039062 616.429688 189.1875 Z M 616.429688 189.1875 "/><path style=" stroke:none;fill-rule:nonzero;fill:#e25469;fill-opacity:1;" d="M 550.53125 225.230469 C 530.628906 227.480469 502.09375 332.597656 516.171875 333.535156 C 535.886719 345.171875 583.386719 228.042969 550.53125 225.230469 Z M 550.53125 225.230469 "/><path style=" stroke:none;fill-rule:nonzero;fill:#e25469;fill-opacity:1;" d="M 554.097656 286.609375 L 540.390625 321.523438 C 540.390625 321.523438 571.371094 353.808594 578.878906 361.316406 C 586.390625 368.824219 605.539062 392.476562 605.539062 392.476562 L 595.402344 402.988281 C 595.402344 402.988281 521.429688 352.496094 513.167969 331.660156 C 506.785156 315.703125 521.429688 275.722656 521.429688 275.722656 Z M 554.097656 286.609375 "/><path style=" stroke:none;fill-rule:nonzero;fill:#e25469;fill-opacity:1;" d="M 515.796875 320.585938 C 513.734375 323.585938 513.734375 327.527344 515.234375 330.90625 C 527.25 356.625 614.925781 420.445312 616.804688 412.371094 C 620.371094 407.679688 531.003906 298.058594 515.796875 320.585938 Z M 515.796875 320.585938 "/><path style=" stroke:none;fill-rule:nonzero;fill:#e25469;fill-opacity:1;" d="M 630.882812 420.632812 C 630.695312 420.820312 630.695312 420.820312 630.507812 421.007812 L 624.3125 423.070312 C 623.375 423.824219 619.996094 423.636719 619.058594 423.070312 L 614.363281 421.382812 C 610.046875 419.503906 606.101562 416.878906 602.910156 413.5 L 596.714844 404.675781 L 595.402344 402.800781 L 597.464844 400.546875 L 604.039062 393.789062 L 605.539062 392.289062 L 606.476562 392.289062 L 613.800781 392.476562 C 616.054688 392.476562 618.117188 393.226562 619.808594 394.164062 L 626.566406 400.734375 C 626.566406 400.734375 624.6875 401.859375 621.871094 400.734375 C 620.558594 400.171875 618.492188 400.359375 616.617188 400.546875 L 620.933594 403.738281 L 630.882812 412.371094 C 633.324219 414.8125 633.324219 418.566406 630.882812 420.632812 Z M 630.882812 420.632812 "/><path style=" stroke:none;fill-rule:nonzero;fill:#263156;fill-opacity:1;" d="M 518.613281 275.910156 C 522.367188 263.898438 539.640625 218.472656 555.789062 223.164062 C 575.125 228.609375 564.800781 256.199219 563.671875 261.082031 C 562.546875 265.960938 554.660156 287.171875 554.660156 287.171875 Z M 518.613281 275.910156 "/><path style=" stroke:none;fill-rule:nonzero;fill:#d4def9;fill-opacity:1;" d="M 557.660156 276.867188 L 565.78125 255.65625 L 566.660156 255.988281 L 558.535156 277.203125 Z M 557.660156 276.867188 "/><path style=" stroke:none;fill-rule:nonzero;fill:#263156;fill-opacity:1;" d="M 94.3125 225.042969 L 94.3125 225.417969 L 48.691406 225.417969 L 48.691406 201.015625 C 48.691406 188.4375 58.832031 178.300781 71.410156 178.300781 C 82.484375 178.300781 91.683594 186.1875 93.75 196.699219 L 105.203125 196.699219 C 102.949219 179.992188 88.679688 167.039062 71.222656 167.039062 C 52.445312 167.039062 37.050781 182.433594 37.050781 201.203125 L 37.050781 237.054688 L 105.390625 236.867188 L 105.390625 225.230469 Z M 94.3125 225.042969 "/><g clip-rule="nonzero" clip-path="url(#275d3e93e7)"><path style=" stroke:none;fill-rule:nonzero;fill:#3e4d77;fill-opacity:1;" d="M 115.527344 214.90625 L 27.664062 215.09375 C 24.660156 215.09375 22.40625 217.53125 22.40625 220.347656 L 22.597656 289.425781 C 22.597656 292.429688 25.035156 294.679688 27.851562 294.679688 L 115.90625 294.492188 C 118.910156 294.492188 121.160156 292.050781 121.160156 289.238281 L 120.972656 220.160156 C 120.972656 217.34375 118.53125 214.90625 115.527344 214.90625 Z M 67.65625 254.136719 L 67.65625 248.316406 C 67.65625 246.066406 69.53125 244.375 71.597656 244.375 C 73.851562 244.375 75.539062 246.253906 75.539062 248.316406 L 75.539062 254.136719 C 77.980469 255.449219 79.667969 258.265625 79.667969 261.269531 C 79.667969 266.148438 75.539062 269.902344 70.46875 269.339844 C 66.902344 268.964844 64.085938 266.148438 63.523438 262.769531 C 63.148438 259.015625 64.839844 255.824219 67.65625 254.136719 Z M 67.65625 254.136719 "/></g><path style=" stroke:none;fill-rule:nonzero;fill:#d4def9;fill-opacity:1;" d="M 31.230469 264.460938 C 30.105469 264.460938 29.355469 263.707031 29.355469 262.582031 L 29.355469 226.542969 C 29.355469 225.417969 30.105469 224.667969 31.230469 224.667969 C 32.359375 224.667969 33.109375 225.417969 33.109375 226.542969 L 33.109375 262.582031 C 33.109375 263.707031 32.359375 264.460938 31.230469 264.460938 Z M 31.230469 264.460938 "/><g clip-rule="nonzero" clip-path="url(#abcce17ba8)"><path style=" stroke:none;fill-rule:nonzero;fill:#263156;fill-opacity:0.2;" d="M 120.972656 220.160156 L 121.160156 289.238281 C 121.160156 292.242188 118.71875 294.492188 115.90625 294.492188 L 27.851562 294.679688 C 24.847656 294.679688 22.597656 292.242188 22.597656 289.425781 L 22.597656 286.046875 C 43.433594 286.234375 74.601562 285.296875 91.496094 278.351562 C 115.714844 268.589844 115.527344 227.855469 114.589844 214.90625 L 115.714844 214.90625 C 118.53125 214.90625 120.972656 217.34375 120.972656 220.160156 Z M 120.972656 220.160156 "/></g><path style=" stroke:none;fill-rule:nonzero;fill:#263156;fill-opacity:1;" d="M 400.710938 195.382812 C 393.765625 195.382812 387.757812 191.816406 384.191406 185.8125 C 380.808594 179.804688 380.808594 172.859375 384.191406 166.851562 L 444.078125 63.238281 C 447.460938 57.230469 453.65625 53.664062 460.601562 53.664062 C 467.546875 53.664062 473.554688 57.230469 477.121094 63.238281 L 537.011719 166.851562 C 540.390625 172.859375 540.390625 179.804688 537.011719 185.8125 C 533.632812 191.816406 527.4375 195.382812 520.492188 195.382812 Z M 400.710938 195.382812 "/><path style=" stroke:none;fill-rule:nonzero;fill:#ffffff;fill-opacity:1;" d="M 460.414062 57.605469 C 465.859375 57.605469 470.925781 60.421875 473.554688 65.304688 L 533.445312 168.917969 C 536.261719 173.609375 536.261719 179.429688 533.445312 184.121094 C 530.628906 188.8125 525.75 191.816406 520.304688 191.816406 L 400.710938 191.816406 C 395.265625 191.816406 390.199219 189 387.570312 184.121094 C 384.753906 179.429688 384.753906 173.609375 387.570312 168.917969 L 447.460938 65.304688 C 450.085938 60.421875 454.96875 57.605469 460.414062 57.605469 M 460.414062 50.097656 C 452.152344 50.097656 444.832031 54.417969 440.699219 61.363281 L 380.808594 164.976562 C 376.679688 172.109375 376.679688 180.554688 380.808594 187.6875 C 384.941406 194.820312 392.261719 198.949219 400.523438 198.949219 L 520.117188 198.949219 C 528.375 198.949219 535.699219 194.632812 539.828125 187.6875 C 543.960938 180.554688 543.960938 172.109375 539.828125 164.976562 L 479.9375 61.363281 C 475.996094 54.417969 468.675781 50.097656 460.414062 50.097656 Z M 460.414062 50.097656 "/><path style=" stroke:none;fill-rule:nonzero;fill:#e25469;fill-opacity:1;" d="M 454.21875 69.246094 L 394.328125 172.859375 C 391.511719 177.550781 395.078125 183.558594 400.523438 183.558594 L 520.117188 183.558594 C 525.558594 183.558594 529.128906 177.550781 526.3125 172.859375 L 466.609375 69.246094 C 463.980469 64.550781 457.035156 64.550781 454.21875 69.246094 Z M 454.21875 69.246094 "/><path style=" stroke:none;fill-rule:nonzero;fill:#e25469;fill-opacity:1;" d="M 400.710938 180.929688 C 399.019531 180.929688 397.519531 179.992188 396.769531 178.679688 C 396.015625 177.175781 396.015625 175.488281 396.769531 174.171875 L 456.472656 70.558594 C 457.222656 69.058594 458.722656 68.304688 460.414062 68.304688 C 462.101562 68.304688 463.605469 69.246094 464.355469 70.558594 L 524.246094 174.171875 C 524.996094 175.675781 524.996094 177.363281 524.246094 178.679688 C 523.496094 180.179688 521.992188 180.929688 520.304688 180.929688 Z M 400.710938 180.929688 "/><path style=" stroke:none;fill-rule:nonzero;fill:#ffffff;fill-opacity:1;" d="M 460.226562 168.167969 C 456.472656 168.167969 453.65625 165.351562 453.65625 161.597656 C 453.65625 157.84375 456.472656 155.027344 460.226562 155.027344 C 463.792969 155.027344 466.796875 157.84375 466.796875 161.597656 C 466.796875 165.164062 463.792969 168.167969 460.226562 168.167969 Z M 459.851562 104.722656 C 462.855469 104.722656 465.292969 107.160156 465.105469 110.164062 L 464.167969 144.140625 C 464.167969 146.582031 462.101562 148.457031 459.851562 148.457031 C 457.410156 148.457031 455.53125 146.582031 455.53125 144.140625 L 454.59375 110.164062 C 454.59375 107.160156 456.847656 104.722656 459.851562 104.722656 Z M 459.851562 104.722656 "/><path style=" stroke:none;fill-rule:nonzero;fill:#e25469;fill-opacity:1;" d="M 138.058594 424.199219 L 138.058594 488.207031 C 138.058594 488.207031 138.058594 488.394531 138.058594 488.394531 C 138.058594 489.519531 137.496094 490.457031 136.742188 491.210938 C 135.992188 491.960938 135.054688 492.335938 133.929688 492.335938 L 28.792969 492.335938 C 27.664062 492.335938 26.726562 491.960938 25.976562 491.210938 C 25.222656 490.457031 24.660156 489.519531 24.660156 488.394531 C 24.660156 488.394531 24.660156 488.394531 24.660156 488.207031 L 24.660156 424.199219 C 24.660156 421.570312 26.726562 419.503906 29.355469 419.503906 L 133.175781 419.503906 C 135.992188 419.503906 138.058594 421.570312 138.058594 424.199219 Z M 138.058594 424.199219 "/><path style=" stroke:none;fill-rule:nonzero;fill:#e25469;fill-opacity:1;" d="M 138.058594 488.394531 C 138.058594 489.519531 137.496094 490.457031 136.742188 491.210938 C 135.992188 491.960938 135.054688 492.335938 133.929688 492.335938 L 28.792969 492.335938 C 27.664062 492.335938 26.726562 491.960938 25.976562 491.210938 C 25.222656 490.457031 24.660156 489.519531 24.660156 488.394531 L 81.171875 439.402344 Z M 138.058594 488.394531 "/><path style=" stroke:none;fill-rule:nonzero;fill:#263156;fill-opacity:1;" d="M 137.496094 489.144531 L 81.359375 440.527344 L 25.601562 489.144531 L 24.285156 487.644531 L 81.359375 438.089844 L 138.621094 487.644531 Z M 137.496094 489.144531 "/><path style=" stroke:none;fill-rule:nonzero;fill:#e25469;fill-opacity:1;" d="M 138.058594 424.199219 L 138.058594 431.144531 L 81.359375 477.132812 L 24.847656 431.144531 L 24.847656 424.011719 C 24.847656 421.382812 26.914062 419.316406 29.542969 419.316406 L 133.363281 419.316406 C 135.992188 419.503906 138.058594 421.570312 138.058594 424.199219 Z M 138.058594 424.199219 "/><path style=" stroke:none;fill-rule:nonzero;fill:#263156;fill-opacity:1;" d="M 81.359375 478.445312 L 24.285156 431.894531 L 25.410156 430.578125 L 81.359375 476.003906 L 137.496094 430.578125 L 138.621094 431.894531 Z M 81.359375 478.445312 "/><path style=" stroke:none;fill-rule:nonzero;fill:#ffffff;fill-opacity:1;" d="M 233.808594 70.371094 C 233.054688 70.371094 232.492188 70.183594 231.742188 69.621094 C 220.664062 60.984375 207.335938 56.480469 193.253906 56.480469 C 179.175781 56.480469 165.84375 60.984375 154.765625 69.621094 C 153.265625 70.746094 151.386719 70.558594 150.261719 69.058594 C 149.136719 67.554688 149.324219 65.679688 150.824219 64.550781 C 163.027344 54.980469 177.671875 49.910156 193.253906 49.910156 C 208.835938 49.910156 223.480469 54.980469 235.683594 64.550781 C 237.1875 65.679688 237.375 67.742188 236.246094 69.058594 C 235.683594 69.996094 234.746094 70.371094 233.808594 70.371094 Z M 233.808594 70.371094 "/><path style=" stroke:none;fill-rule:nonzero;fill:#ffffff;fill-opacity:1;" d="M 224.230469 82.949219 C 223.480469 82.949219 222.730469 82.761719 222.167969 82.195312 C 213.90625 75.628906 203.957031 72.25 193.253906 72.25 C 182.554688 72.25 172.601562 75.628906 164.34375 82.195312 C 163.027344 83.324219 160.960938 83.136719 159.835938 81.632812 C 158.710938 80.320312 158.898438 78.253906 160.398438 77.128906 C 169.785156 69.621094 181.238281 65.679688 193.253906 65.679688 C 205.269531 65.679688 216.722656 69.621094 226.109375 77.128906 C 227.425781 78.253906 227.800781 80.320312 226.671875 81.632812 C 226.109375 82.570312 225.171875 82.949219 224.230469 82.949219 Z M 224.230469 82.949219 "/><path style=" stroke:none;fill-rule:nonzero;fill:#ffffff;fill-opacity:1;" d="M 172.414062 96.460938 C 171.476562 96.460938 170.539062 96.085938 169.972656 95.335938 C 168.847656 94.023438 169.035156 91.957031 170.539062 90.832031 C 176.921875 85.574219 185.183594 82.761719 193.441406 82.761719 C 201.703125 82.761719 209.777344 85.574219 216.347656 90.832031 C 217.660156 91.957031 218.035156 94.023438 216.910156 95.335938 C 215.785156 96.648438 213.71875 97.027344 212.40625 95.898438 C 207.148438 91.582031 200.390625 89.328125 193.628906 89.328125 C 186.871094 89.328125 180.113281 91.769531 174.855469 95.898438 C 173.917969 96.273438 173.167969 96.460938 172.414062 96.460938 Z M 172.414062 96.460938 "/><path style=" stroke:none;fill-rule:nonzero;fill:#ffffff;fill-opacity:1;" d="M 201.515625 106.035156 C 201.515625 106.578125 201.460938 107.113281 201.355469 107.648438 C 201.25 108.179688 201.09375 108.695312 200.886719 109.195312 C 200.679688 109.695312 200.425781 110.171875 200.125 110.625 C 199.820312 111.074219 199.480469 111.492188 199.097656 111.875 C 198.710938 112.257812 198.296875 112.601562 197.84375 112.902344 C 197.394531 113.203125 196.917969 113.457031 196.414062 113.664062 C 195.914062 113.875 195.398438 114.03125 194.867188 114.136719 C 194.335938 114.242188 193.796875 114.292969 193.253906 114.292969 C 192.710938 114.292969 192.175781 114.242188 191.644531 114.136719 C 191.109375 114.03125 190.59375 113.875 190.09375 113.664062 C 189.59375 113.457031 189.117188 113.203125 188.664062 112.902344 C 188.214844 112.601562 187.796875 112.257812 187.414062 111.875 C 187.03125 111.492188 186.6875 111.074219 186.386719 110.625 C 186.085938 110.171875 185.832031 109.695312 185.621094 109.195312 C 185.414062 108.695312 185.257812 108.179688 185.152344 107.648438 C 185.046875 107.113281 184.992188 106.578125 184.992188 106.035156 C 184.992188 105.492188 185.046875 104.957031 185.152344 104.425781 C 185.257812 103.890625 185.414062 103.375 185.621094 102.875 C 185.832031 102.375 186.085938 101.898438 186.386719 101.445312 C 186.6875 100.996094 187.03125 100.578125 187.414062 100.195312 C 187.796875 99.8125 188.214844 99.46875 188.664062 99.167969 C 189.117188 98.867188 189.59375 98.613281 190.09375 98.40625 C 190.59375 98.199219 191.109375 98.039062 191.644531 97.933594 C 192.175781 97.828125 192.710938 97.777344 193.253906 97.777344 C 193.796875 97.777344 194.335938 97.828125 194.867188 97.933594 C 195.398438 98.039062 195.914062 98.199219 196.414062 98.40625 C 196.917969 98.613281 197.394531 98.867188 197.84375 99.167969 C 198.296875 99.46875 198.710938 99.8125 199.097656 100.195312 C 199.480469 100.578125 199.820312 100.996094 200.125 101.445312 C 200.425781 101.898438 200.679688 102.375 200.886719 102.875 C 201.09375 103.375 201.25 103.890625 201.355469 104.425781 C 201.460938 104.957031 201.515625 105.492188 201.515625 106.035156 Z M 201.515625 106.035156 "/></g></svg>